:SAMPLES-PER-SECOND 30
:FULLY-SPECIFIED
:DEGREES
951
root  83.6436 38.3878 -3.10368 -89.7603 -88.6679 86.0016
RightUpLeg  1.04154 -10.4881 -3.43044
RightLeg  17.8189 0.846115 0.884263
RightFoot  -14.7837 -0.141581 -1.38249
RightToes  9.54606e-009 0 -3.6325e-017
Spine  9.04381 -0.054659 9.77821
Spine1  3.27857 1.22269 -0.450299
HEad  1.2079 -39.5607 -14.0281
LeftShoulder1  -0.54853 4.96709 -31.3383
LeftArm  -9.91541 19.9426 -41.223
LeftForeArm  23.6349 -28.7313 -4.92665
LeftHand  -0.0134367 7.04185 1.57759
RightShoulder  -1.26393 -6.73249 32.6113
RightArm  18.0654 -0.779989 40.5127
RightForeArm  13.9601 7.99215 8.42639
RightHand  -0.15748 3.8916 -2.22981
LeftUpLeg  -16.3673 2.85956 4.10864
LeftLeg  39.8168 1.26025 1.5007
LeftFoot  -5.87382 0.288232 -5.28811
LeftToes  -8.26734e-010 9.74065e-011 1.64617e-011
952
root  83.4437 38.4543 -3.21358 -95.5419 -87.6845 92.4011
RightUpLeg  0.767047 -10.8233 -4.30115
RightLeg  17.6485 1.34337 0.984017
RightFoot  -14.8944 -0.148428 -1.53797
RightToes  9.54606e-009 0 -3.6325e-017
Spine  9.35508 0.319522 9.48763
Spine1  1.7436 1.63011 -1.45019
HEad  2.21306 -40.155 -15.1198
LeftShoulder1  -0.508812 4.86767 -31.1651
LeftArm  -9.43673 19.803 -40.6481
LeftForeArm  23.6333 -30.2936 -5.28876
LeftHand  0.00698147 8.0254 2.09594
RightShoulder  -1.27931 -6.78763 32.4302
RightArm  19.9717 0.367838 40.7166
RightForeArm  11.4053 9.88229 8.43233
RightHand  -0.208879 4.72051 -2.6912
LeftUpLeg  -18.2386 3.96262 2.62982
LeftLeg  37.2831 0.67018 0.902166
LeftFoot  -5.72152 0.285467 -5.11585
LeftToes  -8.26734e-010 9.74065e-011 1.64617e-011
953
root  83.1397 38.5023 -3.33146 -90.3736 -87.2188 86.856
RightUpLeg  2.10724 -10.9171 -4.78471
RightLeg  16.8853 1.1734 0.901001
RightFoot  -15.0199 -0.153507 -1.61834
RightToes  9.54606e-009 0 -3.6325e-017
Spine  9.54058 0.42393 9.15911
Spine1  1.64684 1.72965 -1.89957
HEad  2.85741 -40.2327 -15.8802
LeftShoulder1  -0.442627 4.69768 -30.9126
LeftArm  -9.70026 19.5996 -40.4956
LeftForeArm  23.2947 -30.9135 -5.45572
LeftHand  0.0425326 8.39618 3.22581
RightShoulder  -1.20907 -6.6387 32.0216
RightArm  22.4645 1.62277 41.0595
RightForeArm  8.20716 12.2469 8.08085
RightHand  -0.220565 5.07787 -2.75926
LeftUpLeg  -18.5384 4.85843 1.77015
LeftLeg  33.3069 0.879889 0.96381
LeftFoot  -5.75781 0.302755 -5.50074
LeftToes  -8.26734e-010 9.74065e-011 1.64617e-011
954
root  82.8078 38.5546 -3.40684 -84.9053 -86.7121 81.331
RightUpLeg  3.17406 -10.9095 -5.26043
RightLeg  16.0569 0.965289 0.742952
RightFoot  -15.1063 -0.151864 -1.51147
RightToes  9.54606e-009 0 -3.6325e-017
Spine  7.73199 0.621315 8.75428
Spine1  4.49986 1.86498 -2.2967
HEad  2.19864 -40.4348 -14.7099
LeftShoulder1  -0.389658 4.57229 -30.3287
LeftArm  -10.5194 18.4851 -41.5357
LeftForeArm  23.6831 -31.0243 -5.46055
LeftHand  0.0526344 8.60234 3.38457
RightShoulder  -1.09855 -6.44984 30.7558
RightArm  23.8362 3.45098 42.7087
RightForeArm  5.87169 14.3488 7.35152
RightHand  -0.228443 6.27116 -2.60207
LeftUpLeg  -18.6997 5.49067 0.753879
LeftLeg  28.16 1.35189 1.11278
LeftFoot  -5.53491 0.316676 -5.57438
LeftToes  -8.26734e-010 9.74065e-011 1.64617e-011
955
root  82.4676 38.6254 -3.48359 -89.0364 -86.3098 85.6974
RightUpLeg  3.94898 -10.7012 -5.56066
RightLeg  14.9996 0.966129 0.581077
RightFoot  -14.995 -0.14709 -1.43213
RightToes  9.54606e-009 0 -3.6325e-017
Spine  7.50796 0.734268 8.41602
Spine1  4.47886 2.02357 -3.13747
HEad  1.68173 -40.4286 -15.413
LeftShoulder1  -0.444475 4.71742 -30.479
LeftArm  -10.1593 18.3398 -40.9292
LeftForeArm  22.8618 -30.7499 -5.44181
LeftHand  0.0760439 8.92855 3.88964
RightShoulder  -1.03958 -6.31627 30.4143
RightArm  25.798 4.69048 43.377
RightForeArm  3.58755 16.3896 6.66358
RightHand  -0.268701 6.51769 -2.95862
LeftUpLeg  -18.6324 7.18473 -0.211618
LeftLeg  22.0503 1.56096 1.04679
LeftFoot  -4.46503 0.388336 -6.03769
LeftToes  -8.26734e-010 9.74065e-011 1.64617e-011
956
root  82.0921 38.6526 -3.51983 -89.0844 -86.0962 85.9591
RightUpLeg  4.73811 -10.6109 -5.75738
RightLeg  14.1819 0.808456 0.508185
RightFoot  -15.0748 -0.149297 -1.4545
RightToes  9.54606e-009 0 -3.6325e-017
Spine  7.21541 0.90731 8.07744
Spine1  4.55226 2.21116 -3.69155
HEad  1.85928 -40.5881 -15.4764
LeftShoulder1  -0.386564 4.56254 -30.366
LeftArm  -10.1233 18.3411 -41.0127
LeftForeArm  23.0488 -29.7803 -5.2007
LeftHand  0.0417051 8.08399 3.40524
RightShoulder  -1.00257 -6.22743 30.2513
RightArm  27.061 5.75768 43.7073
RightForeArm  1.9243 18.1331 6.00254
RightHand  -0.259638 6.08414 -2.95898
LeftUpLeg  -18.4243 8.18507 -1.01082
LeftLeg  16.0789 1.34939 0.668442
LeftFoot  -2.3806 0.474915 -5.85329
LeftToes  -8.26734e-010 9.74065e-011 1.64617e-011
957
root  81.6654 38.656 -3.5084 -81.9002 -85.9178 78.722
RightUpLeg  6.0366 -10.7127 -6.10581
RightLeg  13.3039 0.56167 0.542571
RightFoot  -15.2716 -0.142142 -1.13111
RightToes  9.54606e-009 0 -3.6325e-017
Spine  7.3541 0.672809 7.75561
Spine1  4.24175 2.03353 -4.26518
HEad  2.14793 -40.4962 -15.4484
LeftShoulder1  -0.352006 4.47133 -30.2416
LeftArm  -9.45577 18.9575 -40.7973
LeftForeArm  22.8408 -28.81 -4.98971
LeftHand  -0.00777954 6.79668 2.23452
RightShoulder  -0.980519 -6.18008 30.0727
RightArm  27.8944 6.68124 44.1423
RightForeArm  0.858187 19.1045 5.70523
RightHand  -0.291133 5.93694 -3.31726
LeftUpLeg  -17.843 6.87672 -1.24405
LeftLeg  10.9969 2.58565 0.191306
LeftFoot  -0.311573 0.599777 -6.19535
LeftToes  -8.26734e-010 9.74065e-011 1.64617e-011
958
root  81.1697 38.6251 -3.49933 -87.3113 -86.1982 83.9726
RightUpLeg  7.23509 -10.4524 -5.99156
RightLeg  12.8342 0.811886 0.464397
RightFoot  -15.6035 -0.138804 -0.895491
RightToes  9.54606e-009 0 -3.6325e-017
Spine  6.92695 1.01055 7.46821
Spine1  5.21302 2.41158 -4.35463
HEad  1.71451 -40.4445 -14.9858
LeftShoulder1  -0.345614 4.45091 -30.3498
LeftArm  -8.83159 18.7664 -41.0414
LeftForeArm  21.9114 -26.7756 -4.57757
LeftHand  -0.0119903 6.84059 1.71238
RightShoulder  -0.942696 -6.09001 29.8766
RightArm  27.62 7.47989 44.5897
RightForeArm  0.839811 19.7828 5.43419
RightHand  -0.27138 6.85828 -2.91421
LeftUpLeg  -17.1288 5.66708 -0.573422
LeftLeg  7.74813 4.51759 -0.501423
LeftFoot  0.02857 0.584439 -5.87435
LeftToes  -8.26734e-010 9.74065e-011 1.64617e-011
959
root  80.5986 38.5514 -3.45081 -92.1021 -86.2599 88.4268
RightUpLeg  8.64736 -10.4628 -6.28217
RightLeg  12.6789 1.16548 0.415128
RightFoot  -16.3366 -0.133986 -0.542351
RightToes  9.54606e-009 0 -3.6325e-017
Spine  6.78709 1.17975 6.781
Spine1  5.67272 2.57674 -4.26438
HEad  1.61725 -40.2912 -14.6795
LeftShoulder1  -0.340442 4.4389 -30.2682
LeftArm  -6.95371 19.028 -41.2809
LeftForeArm  20.341 -24.8483 -4.24445
LeftHand  0.0207173 8.93759 2.23624
RightShoulder  -0.918663 -6.02316 29.8805
RightArm  27.1504 7.87577 45.1187
RightForeArm  1.14272 19.9125 5.35855
RightHand  -0.310375 6.6592 -3.33485
LeftUpLeg  -16.4143 4.99886 -0.587072
LeftLeg  6.49052 6.20356 -0.619071
LeftFoot  1.06618 0.511229 -4.76591
LeftToes  -8.26734e-010 9.74065e-011 1.64617e-011
960
root  79.9524 38.4038 -3.3331 -95.1792 -86.6081 91.2472
RightUpLeg  9.90753 -10.4085 -6.3365
RightLeg  12.9687 1.41133 0.332544
RightFoot  -17.3564 -0.12435 -0.132028
RightToes  9.54606e-009 0 -3.6325e-017
Spine  6.68917 1.20963 6.84912
Spine1  5.55388 2.70762 -4.61059
HEad  2.14011 -40.2332 -14.1215
LeftShoulder1  -0.312766 4.35742 -30.5008
LeftArm  -5.17864 19.347 -40.8715
LeftForeArm  19.3819 -21.991 -3.94034
LeftHand  0.0255263 8.48493 1.84173
RightShoulder  -0.932871 -6.06526 29.8403
RightArm  27.3142 7.87834 45.6739
RightForeArm  0.816057 19.4352 5.55554
RightHand  -0.31968 6.20752 -3.53001
LeftUpLeg  -15.8529 5.09623 -0.798533
LeftLeg  7.00248 6.79831 -0.323053
LeftFoot  1.88282 0.34349 -3.01012
LeftToes  -8.26734e-010 9.74065e-011 1.64617e-011
961
root  79.2421 38.2708 -3.16984 -99.3686 -86.561 95.3781
RightUpLeg  11.1319 -10.5092 -6.91379
RightLeg  13.0711 1.82488 0.300526
RightFoot  -18.3242 -0.112773 0.186573
RightToes  9.54606e-009 0 -3.6325e-017
Spine  5.80257 1.13971 6.56157
Spine1  6.19159 2.78452 -5.24728
HEad  2.33606 -39.6839 -13.8545
LeftShoulder1  -0.31269 4.35732 -30.5044
LeftArm  -5.03182 19.8195 -40.5793
LeftForeArm  21.7237 -19.1079 -4.21474
LeftHand  -0.0367687 6.21037 -0.718461
RightShoulder  -0.911957 -6.02285 29.6188
RightArm  27.1248 7.78737 46.6655
RightForeArm  1.99191 18.4596 5.87916
RightHand  -0.284774 6.19368 -3.18529
LeftUpLeg  -15.3309 5.27061 -1.46989
LeftLeg  8.20793 7.09263 0.038565
LeftFoot  4.1036 0.124785 -1.31625
LeftToes  -8.26734e-010 9.74065e-011 1.64617e-011
962
root  78.466 38.2368 -3.00076 -115.144 -85.8187 111.126
RightUpLeg  12.6487 -10.2358 -8.03294
RightLeg  12.2668 2.8588 0.121792
RightFoot  -18.6954 -0.0754573 0.796934
RightToes  9.54606e-009 0 -3.6325e-017
Spine  4.72578 1.59941 5.41342
Spine1  7.16293 3.37818 -5.91957
HEad  2.80299 -39.3631 -13.6405
LeftShoulder1  -0.359883 4.48662 -30.4828
LeftArm  -5.10508 20.2536 -40.2104
LeftForeArm  22.0457 -16.3842 -5.01764
LeftHand  -0.0762441 9.82425 -0.791252
RightShoulder  -0.925788 -6.03136 30.0455
RightArm  27.1256 7.10665 46.7702
RightForeArm  2.77376 17.8482 6.13207
RightHand  -0.270527 5.97969 -3.09932
LeftUpLeg  -14.4881 5.511 -2.13147
LeftLeg  8.60798 7.59266 -0.154321
LeftFoot  7.65899 -0.601368 3.40963
LeftToes  -8.26734e-010 9.74065e-011 1.64617e-011
